<svg xmlns="http://www.w3.org/2000/svg" width="512" height="512" fill="none" viewBox="0 0 512 512">
  <g clip-path="url(#a)">
    <path fill="#fff" d="m255.625-.312 3.085.006c14.609.05 28.941.3 43.29 3.306l2.954.602C353.962 13.854 397.966 36.192 434 71l1.881 1.815C443.783 80.479 451.328 88.22 458 97l1.263 1.637c24.498 31.869 40.989 68.421 49.049 107.801l.447 2.178c2.974 15.646 3.614 31.12 3.553 47.009l-.006 3.085c-.05 14.609-.301 28.941-3.306 43.29l-.602 2.954C498.146 353.962 475.807 397.966 441 434l-1.815 1.881C431.521 443.783 423.78 451.328 415 458l-1.637 1.263C378.731 485.884 338.235 503.455 295 510l-3.39.537c-11.722 1.682-23.345 1.82-35.172 1.775l-3.093-.006c-14.627-.05-28.978-.297-43.345-3.306l-2.954-.602C158.038 498.146 114.034 475.807 78 441l-1.881-1.815C68.218 431.521 60.672 423.78 54 415l-1.263-1.637c-24.498-31.869-40.989-68.421-49.05-107.801l-.446-2.178c-2.974-15.646-3.614-31.12-3.553-47.009l.006-3.085c.05-14.609.3-28.941 3.306-43.29l.602-2.954C13.854 158.038 36.192 114.034 71 78l1.815-1.881C80.479 68.218 88.22 60.672 97 54l1.637-1.263c31.869-24.498 68.421-40.989 107.801-49.05l2.178-.446c15.646-2.974 31.12-3.614 47.009-3.553ZM156 27l-2.412 1.054C117.613 43.94 83.973 69.694 60 101l-1.272 1.646C51.048 112.638 44.31 123.096 38 134l-1.195 2.052C5.088 191.195-1.654 259.393 14.374 320.49A253.262 253.262 0 0 0 27 356l1.054 2.412C46.026 399.11 75.824 434.32 112 460c2.623-2.438 4.576-5.132 6.625-8.062 16.433-22.749 39.979-40.309 67.246-47.793 3.192-1.717 4.339-4.03 6.129-7.145 1.007-4.784 1.075-9.621 1.125-14.5l.029-2.052c.022-7.62-.197-14.152-5.715-19.891-2.483-2.143-5.038-4.155-7.669-6.112C166.582 343.677 160.855 323.684 156 308l-3 1c-1.933.17-3.873.266-5.812.312l-3.083.114c-4.08-.56-5.893-1.827-9.105-4.426-1.884-2.707-3.287-5.591-4.707-8.562l-1.245-2.511a1016.394 1016.394 0 0 1-3.86-7.927c-.879-1.779-1.758-3.558-2.639-5.336-.837-1.7-1.672-3.4-2.506-5.102l-1.187-2.418-1.094-2.265-.961-1.982c-2.587-6.126-2.41-11.793-.176-18.022 2.382-5.539 5.197-8.345 10.688-10.988 3.062-1.011 5.531-1.119 8.75-1.074l3.097.019c2.456.145 4.482.535 6.84 1.168.167-4.111.328-8.223.482-12.335.054-1.4.109-2.8.166-4.199.082-2.008.157-4.016.231-6.025l.143-3.665c.303-2.685.303-2.685-1.022-3.776.061-9.355 1.562-18.693 2.983-27.919 1.522-10.338 2.081-18.734-2.983-28.081-6.858-12.733-8.814-23.998-4.973-38.078 3.566-10.71 10.436-19.207 20.317-24.668 12.088-5.706 25.029-5.924 37.613-1.586C206.492 92.966 212.453 98.015 218 104c3.549-1.508 5.777-3.612 8.5-6.313 9.425-8.67 20.251-11.091 32.734-10.96C269.552 87.476 278.198 91.255 286 98a172.277 172.277 0 0 1 4 5c1.855.98 1.855.98 4 1 1.903-1.445 1.903-1.445 3.625-3.562 8.883-9.393 19.438-13.435 32.25-13.876C342.03 86.895 352.048 90.707 361 99c8.246 9.26 12.352 20.618 12 33-1.001 9.206-3.811 16.363-8.477 24.258-5.561 10.011-2.092 23.456-.523 34.18.38 2.643.753 5.288 1.125 7.933l.508 3.498c.433 3.693.619 6.922-.141 10.571-.564 2.934-.509 5.534-.371 8.517l.147 3.369.17 3.487.158 3.544c.129 2.882.264 5.762.404 8.643l2.337-.485c6.983-1.35 13.683-1.415 19.944 2.215 4.221 3.118 7.434 7.13 8.719 12.27 1.709 12.495-5.693 23.797-11.084 34.648a713.23 713.23 0 0 0-2.744 5.633c-.598 1.209-1.197 2.417-1.797 3.625l-1.602 3.26c-2.285 3.652-4.93 5.912-8.773 7.834-1.79.097-3.583.13-5.375.125l-2.898.008c-2.422-.118-4.402-.508-6.727-1.133l-.516 1.69C350.115 327.068 344.122 341.192 332 355l-1.766 2.367C328 360 328 360 325.994 361.36c-3.683 2.581-5.706 4.318-6.687 8.82-.204 3.824-.152 7.557.005 11.382l.034 3.944c.172 8.669.172 8.669 3.654 16.494 1.891 1.413 1.891 1.413 4.113 2.145l2.417.947L332 406c1.516.604 3.03 1.212 4.543 1.824l2.293.914c23.505 9.489 43.045 25.468 57.238 46.461 1.793 2.789 1.793 2.789 3.926 4.801 19.258-13.968 37.626-29.934 52-49l1.254-1.628c7.687-9.998 14.432-20.46 20.746-31.372l1.195-2.052c31.706-55.124 38.343-123.086 22.533-184.183C486.41 150.118 464.889 113.006 435 82l-1.619-1.685C426.321 73.003 419.084 66.19 411 60l-1.646-1.272C399.362 51.048 388.904 44.31 378 38l-2.052-1.195C309.783-1.25 225.339-3.588 156 27Zm-4.062 81.25c-3.755 5.33-6.382 11.211-6.938 17.75l-.312 3.563c.164 9.567 4.614 18.615 9.042 26.878 3.904 7.867 2.27 13.81 2.27 23.559h200v-20c1.351-4.17 2.317-6.903 4.438-10.5.834-1.551 1.666-3.103 2.496-4.656l1.126-1.963c3.422-6.848 2.961-16.511 1.256-23.807-3.841-10.25-11-18.811-21.004-23.386-8.948-3.767-18.644-3.937-27.859-.801-6.694 3.038-12.077 7.222-16.453 13.113-3.668 2.243-6.392 2.427-10.586 1.867-3.968-1.425-6.167-4.438-8.949-7.504-7.565-7.253-17.228-9.774-27.43-9.636C240.67 93.84 232.333 100.414 224 109c-2.866 1.433-4.813 1.306-8 1-4.014-2.141-6.991-4.909-10.312-8-7.805-7.08-16.091-9.374-26.45-9.285-11.527 1.015-19.721 7.267-27.3 15.535ZM155 187c-1.193 5.965-2.246 11.964-3 18h207c-.483-9.082-.483-9.082-2-18H155Zm-1 25-1 9c2.325-2.853 3.751-5.541 5-9h-4Zm12 0c-9.758 19.047-9.758 19.047-13 40-4.529-1.264-7.448-2.941-11-6-3.471-1.736-7.204-1.466-11-1-5.118 2.654-8.177 5.531-10 11-.587 6.193 1.036 10.067 3.797 15.418l1.182 2.363a705.877 705.877 0 0 0 2.492 4.908 809.475 809.475 0 0 1 3.779 7.504c.806 1.597 1.613 3.192 2.422 4.787l1.13 2.258c1.977 3.83 3.817 6.969 7.198 9.762 2.735.726 5.239.595 8 0 2.188-1.938 2.188-1.938 4-4 2.75-.25 2.75-.25 5 0 1.701 3.949 2.782 7.891 3.813 12.062 6.231 24.088 21.177 45.096 42.648 57.938 22.677 13.029 48.341 17.37 73.761 10.718 25.362-7.094 46.612-23.157 59.789-45.933C345.501 323.873 351 310.625 351 299c3.794-.353 5.425-.472 8.438 2 2.493 2.278 2.493 2.278 6.062 2.562 4.501-.723 5.544-2.141 8.5-5.562 1.496-2.38 2.731-4.853 3.953-7.383l1.048-2.109c1.092-2.207 2.171-4.42 3.249-6.633.739-1.494 1.478-2.987 2.219-4.48 5.647-10.619 5.647-10.619 6.531-22.395-2.398-4.796-5.204-7.602-10-10-6.411-.814-9.727.341-15 4l-1 2c-3.062.625-3.062.625-6 1l.16-3.461c-.007-4.748-1.166-8.711-2.722-13.164l-.69-2.137c-2.567-7.56-6.088-13.917-9.748-21.238H166Zm188 0 4 9c1.159-3.478.708-5.459 0-9h-4ZM199 373v13c39.091 8.668 74.891 8.145 114 0v-13c-3.023 1.209-5.809 2.35-8.68 3.805-23.903 11.853-52.358 16.043-78.278 7.902-7.599-2.629-14.933-5.856-21.874-9.926-2.853-1.944-2.853-1.944-5.168-1.781Zm0 20-.262 1.758-.425 2.367-.387 2.32c-1.648 4.547-3.954 7.502-8.186 9.762-2.721 1.16-5.464 2.209-8.24 3.231a1168.12 1168.12 0 0 0-5.961 2.339l-2.897 1.144C151.201 424.676 130.119 442.366 119 463v2a97.493 97.493 0 0 0 6.438 4.062l2.057 1.206A835.014 835.014 0 0 0 134 474l1.976 1.14C154.104 485.515 173.72 493.079 194 498l1.398-3.379c2.269-5.13 2.269-5.13 5.602-6.621 4.393-.659 7.862-.509 11.938 1.312 3.155 4.113 3.477 8.627 4.062 13.688 2.374.345 4.748.676 7.125 1l1.957.289c4.758.634 9.421.758 14.222.738l3.805-.012L247 505l.018-3.003c.057-9.344.13-18.687.218-28.03.044-4.803.084-9.607.11-14.41.026-4.636.067-9.272.117-13.908.017-1.768.028-3.536.035-5.305.009-2.478.037-4.955.07-7.433l-.005-2.212c.081-4.382.714-7.226 3.437-10.699 2.41-1.039 2.41-1.039 5.062-1.625 4.266-.873 4.266-.873 6.938-4.375a96.22 96.22 0 0 0 .125-7.688l-.027-2.126A639.83 639.83 0 0 0 263 399l-2.192.026c-7.408.05-14.735-.214-22.12-.776l-3.364-.253c-10.556-.877-20.9-2.606-31.285-4.662-2.188-.416-2.188-.416-5.039-.335Zm107.66.805c-12.195 2.336-24.291 4.109-36.66 5.195l-.113 3.543-.199 4.645-.069 2.33c-.216 4.573-.625 7.8-3.619 11.482-3.375 1.625-3.375 1.625-7 3-2.775.994-2.775.994-5 3-.49 2.736-.635 4.857-.568 7.593l-.002 2.336c.004 2.549.043 5.096.082 7.645.009 1.767.016 3.534.021 5.301.019 4.651.068 9.302.124 13.952.051 4.746.074 9.492.099 14.237.054 9.313.139 18.624.244 27.936 3.968-.139 7.935-.285 11.902-.434l3.371-.117A224.932 224.932 0 0 0 295 503l.262-2.266c1.133-7.946 1.133-7.946 3.8-11.422 4.084-1.824 7.539-2.094 11.938-1.312 4.614 2.552 5.506 5.111 7 10 26.633-6.825 52.187-17.518 75-33-2.319-13.851-20.596-28.639-31.371-36.504-12.002-8.457-25.077-14.581-38.992-19.195-4.107-2.026-6.034-4.759-7.684-8.977l-.703-2.636-.734-2.676L313 393c-2.222 0-4.158.377-6.34.805ZM201 496v4l8 1c.692-1.847.692-1.847 1-4l-2-3c-3.458-.432-4.48-.52-7 2Zm103-2c-2.307 2.715-2.307 2.715-1.625 5.188L303 501l8-1c-.379-3.291-.379-3.291-2-6-2.458-.333-2.458-.333-5 0Z"/>
    <path fill="#fff" d="M117.375 67.25 119 68c.25 2.258.25 2.258 0 5-1.688 1.992-1.688 1.992-4 3.875l-2.504 2.09L110 81a580.441 580.441 0 0 0-3.938 3.438c-2.139 1.876-4.28 3.75-6.433 5.613-26.556 23.324-46.998 55.69-58.434 89.035C40 181 40 181 37.43 181.852L35 182c-1-1-1-1-1.3-3.465.411-4.842 2.15-8.685 4.112-13.098l1.22-2.778C46.242 146.495 54.408 131.203 65 117l1.359-1.83C73.027 106.266 80.298 98.019 88 90l2.594-2.719C96.36 81.37 102.473 76.057 109 71l1.887-1.484c2.325-1.71 3.556-2.575 6.488-2.266Zm195 171.062c3.678 3.766 4.482 5.237 5 10.5-.141 4.73-1.551 7.398-4.375 11.188-4.697 3.309-8.447 3.529-14 3-4.125-1.781-6.667-4.168-9-8-1.213-4.463-1.369-7.915.125-12.313 2.397-3.435 4.841-5.775 8.687-7.5 5.208-.446 9.437-.161 13.563 3.125ZM215 236c3.265 1.777 5.43 4.108 7.438 7.25.955 4.67.918 9.362-1.485 13.594-2.247 2.829-4.462 5.159-7.953 6.156-5.408.429-8.587.432-13-3-3.89-3.458-4.881-5.545-5.312-10.813.056-4.373 1.486-6.811 4.312-10.187 5.021-4.412 9.715-4.566 16-3Zm3.5-118.125C221 118 221 118 222 119c.094 1.719.117 3.441.114 5.162l-.001 3.337-.015 3.63-.005 3.695c-.005 3.913-.018 7.826-.031 11.738l-.013 7.936c-.011 6.501-.028 13.001-.049 19.502l-4 2-3-2c-.367-2.322-.367-2.322-.356-5.26l-.01-3.327.038-3.604.006-3.684c.006-2.573.02-5.146.041-7.719.031-3.955.041-7.91.047-11.865.009-2.494.019-4.988.031-7.482l.013-3.611.029-3.317.021-2.936c.201-3.151.469-3.161 3.64-3.32ZM291 118c4.706.706 4.706.706 6 2 .109 1.641.149 3.287.161 4.931l.029 3.186.013 3.469.017 3.539c.01 2.476.016 4.953.02 7.43.01 3.797.041 7.593.073 11.39l.015 7.203.038 3.457-.01 3.205.012 2.824C297 173 297 173 295.728 174.887 294 176 294 176 291.813 175.688L290 175c-.023-7.284-.041-14.568-.052-21.853-.005-3.382-.012-6.764-.023-10.146-.013-3.884-.018-7.769-.023-11.653l-.015-3.697-.001-3.397-.006-3.008C290 119 290 119 291 118Zm-9 184v5c-15.94 7.932-34.061 8.053-51 3-1-1-1-1-1.125-3.5C230 304 230 304 231 303c1.891.086 1.891.086 4.25.375l2.328.273c2.422.352 2.422.352 4.727.872 10.832 1.931 21.173.613 31.523-2.743 3.228-.791 5.025-.718 8.172.223Zm30.75 143.25c3.048 2.371 4.921 3.857 5.605 7.797.263 4.223.024 7.087-2.667 10.453-3.151 2.931-4.76 3.412-9 3.813-4.39-.372-6.336-1.506-9.688-4.313-2.59-3.415-2.431-6.833-2-11 1.628-3.082 3.03-5.264 5.813-7.375 4.283-1.224 7.869-1.224 11.937.625ZM304 451c-2.334 2.781-2.334 2.781-1.625 5.688L303 459c2.345.77 2.345.77 5 1 2-1 2-1 3-3-.242-3.318-.242-3.318-2-6-2.458-.333-2.458-.333-5 0Zm-95-7c3.082 1.628 5.264 3.03 7.375 5.813 1.36 4.761 1.194 8.11-1.125 12.5-3.209 3.832-4.726 4.548-9.688 5-4.671-.41-6.95-1.868-10.375-4.938-1.874-3.75-1.96-7.278-1.187-11.375 3.451-6.373 8.059-7.588 15-7Zm-8 9c-.417 2.5-.417 2.5 0 5 2.781 2.334 2.781 2.334 5.687 1.625L209 459c.688-2.354.688-2.354 1-5l-2-3c-3.458-.432-4.48-.52-7 2ZM177 35c1 1 1 1 1.062 3.563L178 41c-5.532 2.82-11.116 5.407-16.812 7.875-6.222 2.708-12.147 5.608-17.926 9.191-2.816 1.163-4.387.784-7.262-.066-.23-2.332-.23-2.332 0-5 7.668-7.668 30.255-18.895 41-18Zm77 105 5 1v34c-4 1-4 1-5.727 0-1.905-2.993-1.645-5.482-1.636-9.004l-.002-2.058c.003-1.433.012-2.866.029-4.299.023-2.197.02-4.393.014-6.59.043-10.77.043-10.77 2.322-13.049Zm-77 0c4.706.706 4.706.706 6 2 .242 4.381.229 8.768.24 13.155.01 2.204.041 4.407.073 6.611.006 1.398.011 2.796.015 4.195l.028 3.869C183 173 183 173 181.73 175.002c-1.73.998-1.73.998-3.917.686L176 175c-.025-4.824-.043-9.648-.055-14.471-.005-1.643-.012-3.285-.02-4.927-.013-2.356-.018-4.711-.023-7.067l-.015-2.238c0-1.766.051-3.532.113-5.297l1-1Zm154 0c3.536.536 3.536.536 5 2 .088 2.376.115 4.722.098 7.098l-.005 2.148c-.005 2.272-.018 4.544-.03 6.816-.006 1.538-.01 3.075-.014 4.612-.011 3.775-.028 7.551-.049 11.326l-4 2-3-2c-.372-3.133-.372-3.133-.363-7.125l-.002-2.129c.003-1.487.012-2.973.029-4.459.023-2.278.02-4.555.014-6.834.043-11.174.043-11.174 2.322-13.453Zm43 124c3.692.692 3.692.692 5 2-.417 7.775-2.815 15.038-8 21l-4-1c-.944-2.517-1.278-4.291-.281-6.832a200.177 200.177 0 0 1 2.16-4.035c1.13-2.151 1.986-4.286 2.808-6.571C373 265 373 265 374 264Zm-239 0c1.934.145 1.934.145 4 1 1.16 2.074 1.16 2.074 2.062 4.688 1.097 3.042 2.171 5.753 3.688 8.624 1.315 2.828 1.521 4.611 1.25 7.688l-5 1c-4.619-4.619-6.639-10.722-8-17 .535-4.535.535-4.535 2-6Z"/>
  </g>
  <defs>
    <clipPath id="a">
      <path fill="#fff" d="M0 0h512v512H0z"/>
    </clipPath>
  </defs>
</svg>
